G75*
G70*
%OFA0B0*%
%FSLAX24Y24*%
%IPPOS*%
%LPD*%
%AMOC8*
5,1,8,0,0,1.08239X$1,22.5*
%
%ADD10C,0.0474*%
%ADD11R,0.0110X0.0010*%
%ADD12R,0.0050X0.0010*%
%ADD13R,0.0260X0.0010*%
%ADD14R,0.0240X0.0010*%
%ADD15R,0.0350X0.0010*%
%ADD16R,0.0340X0.0010*%
%ADD17R,0.0430X0.0010*%
%ADD18R,0.0420X0.0010*%
%ADD19R,0.0500X0.0010*%
%ADD20R,0.0490X0.0010*%
%ADD21R,0.0550X0.0010*%
%ADD22R,0.0610X0.0010*%
%ADD23R,0.0670X0.0010*%
%ADD24R,0.0710X0.0010*%
%ADD25R,0.0770X0.0010*%
%ADD26R,0.0830X0.0010*%
%ADD27R,0.0820X0.0010*%
%ADD28R,0.0880X0.0010*%
%ADD29R,0.0930X0.0010*%
%ADD30R,0.1000X0.0010*%
%ADD31R,0.0980X0.0010*%
%ADD32R,0.1070X0.0010*%
%ADD33R,0.1050X0.0010*%
%ADD34R,0.1160X0.0010*%
%ADD35R,0.1130X0.0010*%
%ADD36R,0.2490X0.0010*%
%ADD37R,0.2510X0.0010*%
%ADD38R,0.2530X0.0010*%
%ADD39R,0.2550X0.0010*%
%ADD40R,0.2570X0.0010*%
%ADD41R,0.2590X0.0010*%
%ADD42R,0.2610X0.0010*%
%ADD43R,0.2620X0.0010*%
%ADD44R,0.2640X0.0010*%
%ADD45R,0.2650X0.0010*%
%ADD46R,0.2670X0.0010*%
%ADD47R,0.2680X0.0010*%
%ADD48R,0.2690X0.0010*%
%ADD49R,0.2700X0.0010*%
%ADD50R,0.2720X0.0010*%
%ADD51R,0.2730X0.0010*%
%ADD52R,0.2740X0.0010*%
%ADD53R,0.2750X0.0010*%
%ADD54R,0.2760X0.0010*%
%ADD55R,0.2780X0.0010*%
%ADD56R,0.2800X0.0010*%
%ADD57R,0.2820X0.0010*%
%ADD58R,0.2840X0.0010*%
%ADD59R,0.2850X0.0010*%
%ADD60R,0.2860X0.0010*%
%ADD61R,0.2880X0.0010*%
%ADD62R,0.2870X0.0010*%
%ADD63R,0.2830X0.0010*%
%ADD64R,0.2810X0.0010*%
%ADD65R,0.2790X0.0010*%
%ADD66R,0.2770X0.0010*%
%ADD67R,0.2710X0.0010*%
%ADD68R,0.2630X0.0010*%
%ADD69R,0.2600X0.0010*%
%ADD70R,0.2560X0.0010*%
%ADD71R,0.2470X0.0010*%
%ADD72R,0.2450X0.0010*%
%ADD73R,0.2430X0.0010*%
%ADD74R,0.2410X0.0010*%
%ADD75R,0.2390X0.0010*%
%ADD76R,0.2370X0.0010*%
%ADD77R,0.2350X0.0010*%
%ADD78R,0.2330X0.0010*%
%ADD79R,0.2310X0.0010*%
%ADD80R,0.2290X0.0010*%
%ADD81R,0.2270X0.0010*%
%ADD82R,0.2250X0.0010*%
%ADD83R,0.2230X0.0010*%
%ADD84R,0.2210X0.0010*%
%ADD85R,0.2190X0.0010*%
%ADD86R,0.2170X0.0010*%
%ADD87R,0.2130X0.0010*%
%ADD88R,0.2110X0.0010*%
%ADD89R,0.2090X0.0010*%
%ADD90R,0.2070X0.0010*%
%ADD91R,0.2050X0.0010*%
%ADD92R,0.2030X0.0010*%
%ADD93R,0.2010X0.0010*%
%ADD94R,0.1990X0.0010*%
%ADD95R,0.1970X0.0010*%
%ADD96R,0.1950X0.0010*%
%ADD97R,0.1930X0.0010*%
%ADD98R,0.1910X0.0010*%
%ADD99R,0.1890X0.0010*%
%ADD100R,0.1870X0.0010*%
%ADD101R,0.1850X0.0010*%
%ADD102R,0.1830X0.0010*%
%ADD103R,0.1810X0.0010*%
%ADD104R,0.1790X0.0010*%
%ADD105R,0.1770X0.0010*%
%ADD106R,0.1750X0.0010*%
%ADD107R,0.1730X0.0010*%
%ADD108R,0.1720X0.0010*%
%ADD109R,0.1710X0.0010*%
%ADD110R,0.1690X0.0010*%
%ADD111R,0.1670X0.0010*%
%ADD112R,0.1660X0.0010*%
%ADD113R,0.0140X0.0010*%
%ADD114R,0.1640X0.0010*%
%ADD115R,0.0230X0.0010*%
%ADD116R,0.1630X0.0010*%
%ADD117R,0.0210X0.0010*%
%ADD118R,0.0290X0.0010*%
%ADD119R,0.1610X0.0010*%
%ADD120R,0.0270X0.0010*%
%ADD121R,0.0330X0.0010*%
%ADD122R,0.1600X0.0010*%
%ADD123R,0.0320X0.0010*%
%ADD124R,0.0380X0.0010*%
%ADD125R,0.1580X0.0010*%
%ADD126R,0.0360X0.0010*%
%ADD127R,0.1570X0.0010*%
%ADD128R,0.0400X0.0010*%
%ADD129R,0.0440X0.0010*%
%ADD130R,0.1560X0.0010*%
%ADD131R,0.0480X0.0010*%
%ADD132R,0.1540X0.0010*%
%ADD133R,0.0460X0.0010*%
%ADD134R,0.0510X0.0010*%
%ADD135R,0.1530X0.0010*%
%ADD136R,0.0530X0.0010*%
%ADD137R,0.1520X0.0010*%
%ADD138R,0.0560X0.0010*%
%ADD139R,0.1500X0.0010*%
%ADD140R,0.0540X0.0010*%
%ADD141R,0.0580X0.0010*%
%ADD142R,0.1480X0.0010*%
%ADD143R,0.0600X0.0010*%
%ADD144R,0.0620X0.0010*%
%ADD145R,0.1460X0.0010*%
%ADD146R,0.0650X0.0010*%
%ADD147R,0.1440X0.0010*%
%ADD148R,0.0660X0.0010*%
%ADD149R,0.0630X0.0010*%
%ADD150R,0.0680X0.0010*%
%ADD151R,0.1420X0.0010*%
%ADD152R,0.0700X0.0010*%
%ADD153R,0.1400X0.0010*%
%ADD154R,0.1390X0.0010*%
%ADD155R,0.0730X0.0010*%
%ADD156R,0.1380X0.0010*%
%ADD157R,0.0740X0.0010*%
%ADD158R,0.1360X0.0010*%
%ADD159R,0.0750X0.0010*%
%ADD160R,0.1350X0.0010*%
%ADD161R,0.0760X0.0010*%
%ADD162R,0.1340X0.0010*%
%ADD163R,0.0780X0.0010*%
%ADD164R,0.1320X0.0010*%
%ADD165R,0.0790X0.0010*%
%ADD166R,0.1310X0.0010*%
%ADD167R,0.0810X0.0010*%
%ADD168R,0.1290X0.0010*%
%ADD169R,0.1270X0.0010*%
%ADD170R,0.0840X0.0010*%
%ADD171R,0.1250X0.0010*%
%ADD172R,0.0850X0.0010*%
%ADD173R,0.1230X0.0010*%
%ADD174R,0.0860X0.0010*%
%ADD175R,0.1210X0.0010*%
%ADD176R,0.0870X0.0010*%
%ADD177R,0.1200X0.0010*%
%ADD178R,0.1190X0.0010*%
%ADD179R,0.1170X0.0010*%
%ADD180R,0.0890X0.0010*%
%ADD181R,0.1140X0.0010*%
%ADD182R,0.0900X0.0010*%
%ADD183R,0.0910X0.0010*%
%ADD184R,0.1110X0.0010*%
%ADD185R,0.0920X0.0010*%
%ADD186R,0.1100X0.0010*%
%ADD187R,0.1080X0.0010*%
%ADD188R,0.1060X0.0010*%
%ADD189R,0.0940X0.0010*%
%ADD190R,0.1040X0.0010*%
%ADD191R,0.1020X0.0010*%
%ADD192R,0.0950X0.0010*%
%ADD193R,0.0960X0.0010*%
%ADD194R,0.0800X0.0010*%
%ADD195R,0.0970X0.0010*%
%ADD196R,0.0720X0.0010*%
%ADD197R,0.0570X0.0010*%
%ADD198R,0.0520X0.0010*%
%ADD199R,0.0370X0.0010*%
%ADD200R,0.0300X0.0010*%
%ADD201R,0.0190X0.0010*%
%ADD202R,0.0100X0.0010*%
%ADD203R,0.0200X0.0010*%
%ADD204R,0.0080X0.0010*%
%ADD205R,0.0310X0.0010*%
%ADD206R,0.0250X0.0010*%
%ADD207R,0.0410X0.0010*%
%ADD208R,0.0470X0.0010*%
%ADD209R,0.0590X0.0010*%
%ADD210R,0.0690X0.0010*%
%ADD211R,0.0640X0.0010*%
%ADD212R,0.0450X0.0010*%
%ADD213R,0.0160X0.0010*%
%ADD214R,0.0180X0.0010*%
%ADD215R,0.0060X0.0010*%
%ADD216R,0.0990X0.0010*%
%ADD217R,0.1010X0.0010*%
%ADD218R,0.0390X0.0010*%
%ADD219R,0.0280X0.0010*%
%ADD220R,0.0220X0.0010*%
%ADD221R,0.0277X0.0631*%
%ADD222OC8,0.0600*%
%ADD223R,0.0592X0.0710*%
%ADD224R,0.0789X0.0631*%
%ADD225C,0.0580*%
%ADD226R,0.2049X0.2049*%
D10*
X007087Y016517D03*
D11*
X009814Y009889D03*
D12*
X011514Y009889D03*
D13*
X009819Y009899D03*
X011359Y013609D03*
D14*
X011509Y009899D03*
D15*
X009824Y009909D03*
X011254Y012359D03*
X011354Y013589D03*
D16*
X012269Y012579D03*
X011499Y009909D03*
X008959Y012579D03*
D17*
X010654Y012139D03*
X012114Y011539D03*
X009834Y009919D03*
D18*
X009149Y011529D03*
X008959Y012559D03*
X010029Y012359D03*
X011349Y013569D03*
X011489Y009919D03*
D19*
X009839Y009929D03*
X011259Y012409D03*
X011349Y013539D03*
X012259Y012529D03*
X009899Y013559D03*
D20*
X010024Y012379D03*
X008964Y012539D03*
X011484Y009929D03*
X012114Y011559D03*
D21*
X011474Y009939D03*
X009844Y009939D03*
X011354Y013519D03*
D22*
X011344Y013489D03*
X011264Y012459D03*
X010644Y012099D03*
X009904Y013509D03*
X008974Y012489D03*
X009854Y009949D03*
X011464Y009949D03*
X012254Y012479D03*
D23*
X012124Y011649D03*
X011454Y009959D03*
X010644Y012079D03*
X011344Y013449D03*
X011344Y013459D03*
X009904Y013479D03*
X009864Y009959D03*
D24*
X009874Y009969D03*
X009124Y011659D03*
X008984Y012429D03*
X010014Y012489D03*
X011264Y012519D03*
X011344Y013429D03*
X012244Y012419D03*
X012134Y011679D03*
X011444Y009969D03*
D25*
X011434Y009979D03*
X009884Y009979D03*
X010014Y012529D03*
X009914Y013409D03*
X008994Y012389D03*
X011274Y012569D03*
X012234Y012369D03*
D26*
X011274Y012619D03*
X011334Y013319D03*
X011334Y013329D03*
X010004Y012589D03*
X010004Y012579D03*
X009924Y013359D03*
X009004Y012329D03*
X009894Y009989D03*
D27*
X009109Y011749D03*
X008999Y012339D03*
X008999Y012349D03*
X009919Y013369D03*
X010009Y012569D03*
X010639Y012019D03*
X011419Y009989D03*
X012149Y011779D03*
X012229Y012309D03*
X012229Y012319D03*
D28*
X012219Y012239D03*
X012219Y012229D03*
X012159Y011869D03*
X012159Y011859D03*
X012159Y011849D03*
X011279Y012679D03*
X011279Y012689D03*
X011329Y013259D03*
X011329Y013269D03*
X010639Y011989D03*
X009999Y012629D03*
X009999Y012639D03*
X009929Y013309D03*
X009009Y012279D03*
X009099Y011819D03*
X009099Y011809D03*
X009909Y009999D03*
X011409Y009999D03*
D29*
X011394Y010009D03*
X012184Y011999D03*
X012184Y012009D03*
X012184Y012019D03*
X012184Y012029D03*
X012184Y012039D03*
X012194Y012059D03*
X012194Y012069D03*
X012194Y012079D03*
X012194Y012089D03*
X012194Y012099D03*
X011284Y012759D03*
X011324Y013179D03*
X011324Y013189D03*
X011324Y013199D03*
X009994Y012699D03*
X009994Y012689D03*
X009934Y013229D03*
X009934Y013239D03*
X009934Y013249D03*
X009024Y012199D03*
X009084Y011899D03*
X009084Y011889D03*
X009924Y010009D03*
D30*
X009939Y010019D03*
X010639Y011929D03*
X009979Y012819D03*
X009979Y012829D03*
X009979Y012839D03*
X009979Y012849D03*
X009949Y013079D03*
X009949Y013089D03*
X009949Y013099D03*
X009949Y013109D03*
D31*
X009939Y013149D03*
X009939Y013159D03*
X009979Y012799D03*
X009979Y012789D03*
X010639Y011939D03*
X011299Y012889D03*
X011299Y012899D03*
X011299Y012909D03*
X011299Y012919D03*
X011299Y012929D03*
X011299Y012939D03*
X011309Y012989D03*
X011309Y012999D03*
X011309Y013009D03*
X011309Y013019D03*
X011309Y013029D03*
X011309Y013039D03*
X011309Y013049D03*
X011379Y010019D03*
D32*
X009964Y010029D03*
D33*
X010644Y011899D03*
X011354Y010029D03*
D34*
X010639Y011829D03*
X009999Y010039D03*
D35*
X010644Y011849D03*
X011324Y010039D03*
D36*
X010654Y010049D03*
X010654Y011019D03*
D37*
X010654Y011009D03*
X010654Y010999D03*
X010654Y010059D03*
D38*
X010654Y010069D03*
X010654Y010989D03*
D39*
X010654Y010979D03*
X010654Y010079D03*
D40*
X010654Y010089D03*
X010654Y010959D03*
D41*
X010654Y010949D03*
X010654Y010099D03*
D42*
X010654Y010109D03*
X010654Y010929D03*
D43*
X010649Y010919D03*
X010649Y010119D03*
D44*
X010649Y010129D03*
D45*
X010654Y010139D03*
X010654Y010889D03*
X010654Y010899D03*
D46*
X010654Y010879D03*
X010654Y010149D03*
D47*
X010649Y010159D03*
X010649Y010869D03*
D48*
X010654Y010859D03*
X010654Y010169D03*
D49*
X010649Y010179D03*
X010649Y010849D03*
D50*
X010649Y010829D03*
X010649Y010189D03*
D51*
X010654Y010199D03*
X010654Y010809D03*
X010654Y010819D03*
D52*
X010649Y010799D03*
X010649Y010209D03*
D53*
X010654Y010219D03*
X010654Y010789D03*
D54*
X010649Y010779D03*
X010649Y010239D03*
X010649Y010229D03*
D55*
X010649Y010249D03*
X010649Y010259D03*
X010649Y010749D03*
X010649Y010759D03*
D56*
X010649Y010729D03*
X010649Y010719D03*
X010649Y010289D03*
X010649Y010279D03*
X010649Y010269D03*
D57*
X010649Y010299D03*
X010649Y010309D03*
X010649Y010319D03*
X010649Y010679D03*
X010649Y010689D03*
X010649Y010699D03*
D58*
X010649Y010659D03*
X010649Y010649D03*
X010649Y010639D03*
X010649Y010629D03*
X010649Y010359D03*
X010649Y010349D03*
X010649Y010339D03*
X010649Y010329D03*
D59*
X010654Y010369D03*
X010654Y010619D03*
D60*
X010649Y010609D03*
X010649Y010599D03*
X010649Y010589D03*
X010649Y010579D03*
X010649Y010569D03*
X010649Y010559D03*
X010649Y010549D03*
X010649Y010439D03*
X010649Y010429D03*
X010649Y010419D03*
X010649Y010409D03*
X010649Y010399D03*
X010649Y010389D03*
X010649Y010379D03*
D61*
X010649Y010449D03*
X010649Y010459D03*
X010649Y010469D03*
X010649Y010479D03*
X010649Y010489D03*
X010649Y010499D03*
X010649Y010509D03*
X010649Y010519D03*
X010649Y010529D03*
D62*
X010654Y010539D03*
D63*
X010654Y010669D03*
D64*
X010654Y010709D03*
D65*
X010654Y010739D03*
D66*
X010654Y010769D03*
D67*
X010654Y010839D03*
D68*
X010654Y010909D03*
D69*
X010649Y010939D03*
D70*
X010649Y010969D03*
D71*
X010654Y011029D03*
D72*
X010654Y011039D03*
X010654Y011049D03*
D73*
X010654Y011059D03*
D74*
X010654Y011069D03*
D75*
X010654Y011079D03*
D76*
X010654Y011089D03*
D77*
X010654Y011099D03*
X010654Y011109D03*
D78*
X010654Y011119D03*
D79*
X010654Y011129D03*
D80*
X010654Y011139D03*
D81*
X010654Y011149D03*
D82*
X010654Y011159D03*
D83*
X010654Y011169D03*
D84*
X010654Y011179D03*
D85*
X010654Y011189D03*
D86*
X010654Y011199D03*
D87*
X010654Y011209D03*
D88*
X010654Y011219D03*
D89*
X010654Y011229D03*
D90*
X010654Y011239D03*
D91*
X010654Y011249D03*
D92*
X010654Y011259D03*
D93*
X010654Y011269D03*
D94*
X010654Y011279D03*
D95*
X010654Y011289D03*
D96*
X010654Y011299D03*
D97*
X010654Y011309D03*
D98*
X010654Y011319D03*
D99*
X010654Y011329D03*
D100*
X010654Y011339D03*
D101*
X010654Y011349D03*
D102*
X010654Y011359D03*
D103*
X010654Y011369D03*
X010654Y011379D03*
D104*
X010654Y011389D03*
D105*
X010654Y011399D03*
D106*
X010654Y011409D03*
D107*
X010654Y011419D03*
D108*
X010649Y011429D03*
D109*
X010654Y011439D03*
D110*
X010654Y011449D03*
D111*
X010654Y011459D03*
D112*
X010649Y011469D03*
D113*
X009159Y011479D03*
X009889Y013639D03*
X012099Y011479D03*
D114*
X010649Y011479D03*
D115*
X009154Y011489D03*
X008954Y012599D03*
D116*
X010654Y011489D03*
D117*
X012104Y011489D03*
D118*
X009154Y011499D03*
X008954Y012589D03*
D119*
X010654Y011499D03*
D120*
X010034Y012319D03*
X012104Y011499D03*
D121*
X009894Y013609D03*
X009154Y011509D03*
D122*
X010649Y011509D03*
D123*
X012109Y011509D03*
D124*
X012269Y012569D03*
X011259Y012369D03*
X009149Y011519D03*
X008959Y012569D03*
D125*
X010649Y011519D03*
D126*
X010029Y012339D03*
X012109Y011519D03*
D127*
X010654Y011529D03*
D128*
X010029Y012349D03*
X012109Y011529D03*
D129*
X011259Y012389D03*
X009899Y013579D03*
X009149Y011539D03*
D130*
X010649Y011539D03*
D131*
X010649Y012129D03*
X011349Y013549D03*
X009149Y011549D03*
D132*
X010649Y011549D03*
D133*
X010029Y012369D03*
X009899Y013569D03*
X012109Y011549D03*
D134*
X012114Y011569D03*
X010024Y012389D03*
X009144Y011559D03*
X008964Y012529D03*
D135*
X010654Y011559D03*
D136*
X009144Y011569D03*
D137*
X010649Y011569D03*
D138*
X009139Y011579D03*
X008969Y012509D03*
X012119Y011589D03*
D139*
X010649Y011579D03*
D140*
X010029Y012399D03*
X009899Y013539D03*
X008969Y012519D03*
X011259Y012429D03*
X012119Y011579D03*
X012259Y012509D03*
D141*
X012119Y011599D03*
X011349Y013509D03*
X009139Y011589D03*
X008969Y012499D03*
D142*
X010649Y011599D03*
X010649Y011589D03*
D143*
X010019Y012429D03*
X009139Y011599D03*
X012119Y011609D03*
D144*
X012119Y011619D03*
X010019Y012439D03*
X009139Y011609D03*
D145*
X010649Y011609D03*
D146*
X011264Y012479D03*
X011344Y013469D03*
X012124Y011639D03*
X009904Y013489D03*
X009134Y011619D03*
D147*
X010649Y011619D03*
X010649Y011629D03*
D148*
X010019Y012459D03*
X009129Y011629D03*
X008979Y012459D03*
X011269Y012489D03*
X012249Y012449D03*
D149*
X012254Y012469D03*
X012124Y011629D03*
X011264Y012469D03*
X010644Y012089D03*
X011344Y013479D03*
X009904Y013499D03*
X008974Y012479D03*
D150*
X008979Y012449D03*
X009129Y011639D03*
X010019Y012469D03*
X009909Y013469D03*
X011269Y012499D03*
X012129Y011659D03*
X012249Y012439D03*
D151*
X010649Y011639D03*
D152*
X010639Y012069D03*
X009909Y013459D03*
X009129Y011649D03*
X012129Y011669D03*
D153*
X010649Y011649D03*
D154*
X010644Y011659D03*
D155*
X010014Y012499D03*
X009914Y013439D03*
X008984Y012419D03*
X009124Y011669D03*
X012134Y011689D03*
X012244Y012399D03*
D156*
X010649Y011669D03*
D157*
X010009Y012509D03*
X009119Y011679D03*
X008989Y012409D03*
X011269Y012539D03*
X011269Y012549D03*
X011339Y013409D03*
X012239Y012389D03*
X012139Y011699D03*
D158*
X010649Y011679D03*
D159*
X010644Y012049D03*
X010014Y012519D03*
X009914Y013419D03*
X009914Y013429D03*
X009124Y011689D03*
X011344Y013399D03*
X012134Y011709D03*
D160*
X010644Y011689D03*
D161*
X011269Y012559D03*
X011339Y013389D03*
X012239Y012379D03*
X012139Y011719D03*
X009119Y011699D03*
X008989Y012399D03*
D162*
X010649Y011699D03*
D163*
X010639Y012039D03*
X010009Y012539D03*
X009119Y011709D03*
X008989Y012379D03*
X011339Y013369D03*
X011339Y013379D03*
X012239Y012359D03*
X012139Y011739D03*
X012139Y011729D03*
D164*
X010649Y011709D03*
D165*
X011274Y012579D03*
X011274Y012589D03*
X012144Y011749D03*
X012234Y012349D03*
X009914Y013399D03*
X008994Y012369D03*
X009114Y011719D03*
D166*
X010644Y011719D03*
D167*
X011274Y012599D03*
X011274Y012609D03*
X011334Y013339D03*
X011334Y013349D03*
X012234Y012329D03*
X012144Y011769D03*
X012144Y011759D03*
X009114Y011739D03*
X009114Y011729D03*
D168*
X010644Y011729D03*
X010644Y011739D03*
D169*
X010644Y011749D03*
D170*
X010639Y012009D03*
X011279Y012629D03*
X011279Y012639D03*
X012149Y011799D03*
X012149Y011789D03*
X012229Y012289D03*
X012229Y012299D03*
X009919Y013349D03*
X009109Y011769D03*
X009109Y011759D03*
D171*
X010644Y011759D03*
X010644Y011769D03*
D172*
X010004Y012599D03*
X009924Y013339D03*
X009004Y012319D03*
X009004Y012309D03*
X009104Y011779D03*
X011334Y013299D03*
X011334Y013309D03*
X012224Y012279D03*
X012224Y012269D03*
X012154Y011819D03*
X012154Y011809D03*
D173*
X010644Y011779D03*
D174*
X010639Y011999D03*
X009999Y012609D03*
X009919Y013329D03*
X009009Y012299D03*
X009099Y011789D03*
X011279Y012649D03*
X011279Y012659D03*
X011329Y013289D03*
X012219Y012259D03*
X012159Y011829D03*
D175*
X010644Y011789D03*
D176*
X010004Y012619D03*
X009924Y013319D03*
X009014Y012289D03*
X009104Y011799D03*
X011284Y012669D03*
X011334Y013279D03*
X012224Y012249D03*
X012154Y011839D03*
D177*
X010639Y011799D03*
D178*
X010644Y011809D03*
D179*
X010644Y011819D03*
D180*
X011284Y012699D03*
X012214Y012219D03*
X012214Y012209D03*
X012164Y011889D03*
X012164Y011879D03*
X009924Y013299D03*
X009014Y012269D03*
X009014Y012259D03*
X009094Y011839D03*
X009094Y011829D03*
D181*
X010639Y011839D03*
D182*
X010639Y011979D03*
X009999Y012649D03*
X009999Y012659D03*
X009929Y013279D03*
X009929Y013289D03*
X009019Y012249D03*
X009019Y012239D03*
X009089Y011849D03*
X011279Y012709D03*
X011329Y013239D03*
X011329Y013249D03*
X012209Y012199D03*
X012209Y012189D03*
X012209Y012179D03*
X012169Y011919D03*
X012169Y011909D03*
X012169Y011899D03*
D183*
X012174Y011929D03*
X012174Y011939D03*
X012174Y011949D03*
X012204Y012149D03*
X012204Y012159D03*
X012204Y012169D03*
X011284Y012719D03*
X011284Y012729D03*
X011324Y013209D03*
X011324Y013219D03*
X011324Y013229D03*
X009994Y012679D03*
X009994Y012669D03*
X009934Y013269D03*
X009024Y012229D03*
X009024Y012219D03*
X009094Y011859D03*
D184*
X010644Y011859D03*
D185*
X010639Y011969D03*
X011289Y012739D03*
X011289Y012749D03*
X012199Y012139D03*
X012199Y012129D03*
X012199Y012119D03*
X012199Y012109D03*
X012179Y011989D03*
X012179Y011979D03*
X012179Y011969D03*
X012179Y011959D03*
X009929Y013259D03*
X009029Y012209D03*
X009089Y011879D03*
X009089Y011869D03*
D186*
X010639Y011869D03*
D187*
X010639Y011879D03*
D188*
X010639Y011889D03*
D189*
X010639Y011959D03*
X009989Y012709D03*
X009989Y012719D03*
X009029Y012189D03*
X009029Y012179D03*
X009029Y012169D03*
X009079Y011929D03*
X009079Y011919D03*
X009079Y011909D03*
X011289Y012769D03*
X011289Y012779D03*
X011289Y012789D03*
X011319Y013149D03*
X011319Y013159D03*
X011319Y013169D03*
X012189Y012049D03*
D190*
X010639Y011909D03*
D191*
X010639Y011919D03*
X009969Y012909D03*
X009969Y012919D03*
X009969Y012929D03*
X009969Y012939D03*
X009959Y012969D03*
X009959Y012979D03*
X009959Y012989D03*
X009959Y012999D03*
X009959Y013009D03*
X009959Y013019D03*
D192*
X009934Y013209D03*
X009934Y013219D03*
X009034Y012159D03*
X009034Y012149D03*
X009034Y012139D03*
X009044Y012119D03*
X009044Y012109D03*
X009074Y011959D03*
X009074Y011949D03*
X009074Y011939D03*
X011294Y012799D03*
X011294Y012809D03*
D193*
X011289Y012819D03*
X011289Y012829D03*
X011319Y013109D03*
X011319Y013119D03*
X011319Y013129D03*
X011319Y013139D03*
X010639Y011949D03*
X009989Y012729D03*
X009989Y012739D03*
X009989Y012749D03*
X009939Y013179D03*
X009939Y013189D03*
X009939Y013199D03*
X009039Y012129D03*
X009049Y012099D03*
X009049Y012089D03*
X009049Y012079D03*
X009049Y012069D03*
X009049Y012059D03*
X009059Y012039D03*
X009059Y012029D03*
X009059Y012019D03*
X009059Y012009D03*
X009059Y011999D03*
X009069Y011989D03*
X009069Y011979D03*
X009069Y011969D03*
D194*
X008999Y012359D03*
X009919Y013379D03*
X009919Y013389D03*
X010009Y012559D03*
X010009Y012549D03*
X010639Y012029D03*
X011339Y013359D03*
X012229Y012339D03*
D195*
X011294Y012839D03*
X011294Y012849D03*
X011294Y012859D03*
X011294Y012869D03*
X011294Y012879D03*
X011314Y013059D03*
X011314Y013069D03*
X011314Y013079D03*
X011314Y013089D03*
X011314Y013099D03*
X009984Y012779D03*
X009984Y012769D03*
X009984Y012759D03*
X009944Y013169D03*
X009054Y012049D03*
D196*
X009909Y013449D03*
X010639Y012059D03*
X011269Y012529D03*
X011339Y013419D03*
X012239Y012409D03*
D197*
X012254Y012499D03*
X011264Y012439D03*
X010644Y012109D03*
X010024Y012409D03*
X009904Y013529D03*
D198*
X009899Y013549D03*
X010649Y012119D03*
X011259Y012419D03*
X011349Y013529D03*
X012259Y012519D03*
D199*
X010654Y012149D03*
X009894Y013599D03*
D200*
X010659Y012159D03*
X012269Y012589D03*
D201*
X011254Y012329D03*
X010664Y012169D03*
D202*
X010039Y012299D03*
X011359Y013629D03*
D203*
X011359Y013619D03*
X010039Y012309D03*
D204*
X011249Y012319D03*
D205*
X011254Y012349D03*
X011354Y013599D03*
X010034Y012329D03*
D206*
X011254Y012339D03*
X012274Y012599D03*
D207*
X012264Y012559D03*
X011254Y012379D03*
X009894Y013589D03*
D208*
X011254Y012399D03*
X012264Y012539D03*
D209*
X012254Y012489D03*
X011264Y012449D03*
X011344Y013499D03*
X010024Y012419D03*
X009904Y013519D03*
D210*
X010014Y012479D03*
X008984Y012439D03*
X011264Y012509D03*
X011344Y013439D03*
X012244Y012429D03*
D211*
X012249Y012459D03*
X010019Y012449D03*
X008979Y012469D03*
D212*
X008964Y012549D03*
X011354Y013559D03*
X012264Y012549D03*
D213*
X008949Y012609D03*
D214*
X012279Y012609D03*
D215*
X012279Y012619D03*
D216*
X011304Y012949D03*
X011304Y012959D03*
X011304Y012969D03*
X011304Y012979D03*
X009984Y012809D03*
X009944Y013119D03*
X009944Y013129D03*
X009944Y013139D03*
D217*
X009954Y013069D03*
X009954Y013059D03*
X009954Y013049D03*
X009954Y013039D03*
X009954Y013029D03*
X009964Y012959D03*
X009964Y012949D03*
X009974Y012899D03*
X009974Y012889D03*
X009974Y012879D03*
X009974Y012869D03*
X009974Y012859D03*
D218*
X011354Y013579D03*
D219*
X009889Y013619D03*
D220*
X009889Y013629D03*
D221*
X004730Y016988D03*
X004230Y016988D03*
X003730Y016988D03*
X003234Y016988D03*
X003234Y019668D03*
X003734Y019668D03*
X004234Y019668D03*
X004734Y019668D03*
D222*
X006587Y020328D03*
X007587Y020328D03*
X007587Y018288D03*
X006587Y018288D03*
D223*
X009110Y018288D03*
X009858Y018288D03*
X009858Y020328D03*
X009110Y020328D03*
D224*
X008268Y015729D03*
X008268Y014548D03*
X005905Y014548D03*
X005905Y015729D03*
X003150Y015729D03*
X003150Y014548D03*
X011024Y014548D03*
X011024Y015729D03*
D225*
X005609Y017460D03*
X005609Y018564D03*
X005609Y019668D03*
X004234Y020328D03*
X003484Y020328D03*
X002248Y020328D03*
D226*
G36*
X003073Y009698D02*
X001625Y011146D01*
X003073Y012594D01*
X004521Y011146D01*
X003073Y009698D01*
G37*
G36*
X011146Y001625D02*
X009698Y003073D01*
X011146Y004521D01*
X012594Y003073D01*
X011146Y001625D01*
G37*
M02*
